<svg width="180" height="45" viewBox="0 0 180 45" fill="none" xmlns="http://www.w3.org/2000/svg">
<g clip-path="url(#clip0_453_22392)">
<path d="M23.755 7.86359C23.755 8.82751 23.4445 9.5885 22.8752 10.1466C22.3059 10.7046 21.4779 11.009 20.4428 11.009C19.4077 11.009 18.4761 10.7554 17.6481 10.1973C17.8551 9.68997 17.9586 9.18264 17.9586 8.62458C17.9586 7.71139 17.4928 6.89966 16.5095 6.24014C15.5262 5.52988 14.1806 5.17475 12.4209 5.17475C10.6613 5.17475 9.21219 5.52988 8.12536 6.1894C7.03853 6.84893 6.46923 7.76212 6.46923 8.87824C6.46923 9.99436 7.09028 11.009 8.33237 11.9222C9.57447 12.8354 11.0753 13.6471 12.8867 14.4081C14.6463 15.1691 16.4577 15.9808 18.2174 16.8433C20.0288 17.7058 21.5296 18.8219 22.7717 20.1409C24.0138 21.5107 24.6348 23.0327 24.6348 24.7069C24.6348 27.4465 23.3928 29.6787 20.9603 31.4036C18.5279 33.1793 15.5779 34.0417 12.1622 34.0417C8.74641 34.0417 5.84819 33.3822 3.51926 32.0124C1.19034 30.6426 0 28.9177 0 26.8377C0 24.7576 0.362277 24.8591 1.08683 24.1996C1.81139 23.54 2.74296 23.1849 3.88154 23.1849C5.02013 23.1849 6.00345 23.5908 6.88327 24.4025C6.15871 25.1127 5.79643 25.9245 5.79643 26.8884C5.79643 27.8523 6.36573 28.664 7.50431 29.3743C8.6429 30.0846 10.1955 30.4397 12.1622 30.4397C14.1288 30.4397 15.7332 29.9831 16.9753 29.1206C18.2174 28.2582 18.8384 27.1928 18.8384 25.9245C18.8384 24.6561 18.2174 23.54 16.9753 22.6268C15.7332 21.6629 14.2323 20.8512 12.4209 20.0902C10.6613 19.3292 8.84991 18.5682 7.09028 17.7565C5.2789 16.9448 3.77803 15.8794 2.53594 14.611C1.29385 13.3427 0.6728 11.8207 0.6728 10.1466C0.6728 7.55919 1.81139 5.42841 4.08856 3.85569C6.36573 2.28298 9.16044 1.47125 12.4727 1.47125C15.7849 1.47125 18.4761 2.08005 20.5463 3.29763C22.6164 4.51522 23.6515 5.98647 23.6515 7.81285L23.755 7.86359Z" fill="#0C2447"/>
<path d="M29.0342 22.4239C29.0342 18.6697 30.0693 15.8287 32.1394 13.7993C34.2096 11.77 36.849 10.8061 40.1095 10.8061C43.37 10.8061 46.0095 11.8208 48.0796 13.8501C50.1498 15.8794 51.1848 18.7712 51.1848 22.4747C51.1848 26.1781 50.1498 29.0699 48.0796 31.0992C46.0095 33.1285 43.37 34.1432 40.1613 34.1432C36.9525 34.1432 34.3131 33.1285 32.1912 31.0992C30.121 29.0699 29.0859 26.1781 29.0859 22.4747L29.0342 22.4239ZM39.592 13.6979C36.3832 13.6979 34.7789 16.1331 34.7789 21.0034C34.7789 25.8738 34.7789 21.9166 34.7789 22.3732C35.0894 28.2075 37.0043 31.0992 40.5235 31.0992C44.0428 31.0992 45.2849 28.7148 45.2849 23.8952C45.2849 19.0756 45.2849 22.9312 45.2849 22.3732C44.9744 16.5896 43.0595 13.6979 39.592 13.6979Z" fill="#0C2447"/>
<path d="M56.9296 40.5862V14.9661C56.9296 13.6978 56.4638 12.8354 55.584 12.4295C56.4638 11.3134 57.5506 10.7553 58.948 10.7553C61.0699 10.7553 62.2602 11.77 62.519 13.85C64.1234 11.8207 66.2453 10.7553 68.8847 10.7553C71.5242 10.7553 73.8014 11.77 75.6127 13.7993C77.4241 15.8286 78.3557 18.6696 78.3557 22.3731C78.3557 26.0766 77.3206 28.9177 75.2505 30.9977C73.1803 33.0778 70.7479 34.0924 68.0567 34.0924C65.3655 34.0924 64.2269 33.4329 62.6743 32.1646V40.7384C62.6743 42.0067 63.14 42.8185 64.0199 43.2751C63.0883 44.4419 61.9497 45 60.6041 45C58.1717 45 56.9813 43.5287 56.9813 40.6369L56.9296 40.5862ZM67.3839 30.5411C68.7812 30.5411 70.0233 29.7801 71.0584 28.3089C72.0935 26.8376 72.611 24.859 72.611 22.4239C72.611 19.9887 72.0935 18.1116 71.0584 16.7925C70.0233 15.4227 68.7812 14.7632 67.3321 14.7632C65.262 14.7632 63.7093 15.8286 62.6225 17.9086V28.1567C63.8128 29.7294 65.3655 30.5411 67.3321 30.5411H67.3839Z" fill="#0C2447"/>
<path d="M103.922 18.4667V29.8816C103.922 31.1499 104.388 31.9617 105.268 32.4183C104.336 33.5344 103.198 34.0924 101.852 34.0924C99.4196 34.0924 98.2293 32.6212 98.2293 29.7294V19.1263C98.2293 16.5896 97.0907 15.3213 94.8653 15.3213C92.6398 15.3213 92.5881 15.8286 91.553 16.7926C90.4662 17.7565 89.7416 19.177 89.3276 20.9019V29.8309C89.3276 31.0992 89.7934 31.9109 90.6732 32.3675C89.7416 33.4837 88.603 34.0417 87.2574 34.0417C84.825 34.0417 83.6347 32.5705 83.6347 29.6787V4.21082C83.6347 2.99324 83.1689 2.13078 82.2891 1.67418C83.1689 0.558061 84.2557 0 85.6531 0C88.0855 0 89.3276 1.47125 89.3276 4.36302V15.6257C90.1039 14.1037 91.1907 12.9369 92.5881 12.0744C93.9854 11.212 95.6416 10.8061 97.5047 10.8061C99.3678 10.8061 100.92 11.4656 102.111 12.7847C103.301 14.1037 103.922 15.9808 103.922 18.5175V18.4667Z" fill="#0C2447"/>
<path d="M116.756 15.1184V29.8816C116.756 31.1499 117.222 31.9617 118.102 32.4183C117.17 33.5344 116.032 34.0924 114.686 34.0924C112.254 34.0924 111.063 32.6212 111.063 29.7294V14.9662C111.063 13.6979 110.598 12.8354 109.718 12.4295C110.598 11.3134 111.684 10.7554 113.082 10.7554C115.514 10.7554 116.756 12.2266 116.756 15.1184ZM114.117 0.456589C115.1 0.456589 115.928 0.760986 116.601 1.36978C117.274 1.97857 117.584 2.73957 117.584 3.70349C117.584 4.66741 117.17 5.5806 116.342 6.3416C115.514 7.15332 114.531 7.55918 113.496 7.55918C112.461 7.55918 111.581 7.25479 110.908 6.64599C110.235 6.0372 109.925 5.22547 109.925 4.21082C109.925 3.19616 110.391 2.3337 111.322 1.57271C112.254 0.811718 113.185 0.456589 114.22 0.456589H114.117Z" fill="#0C2447"/>
<path d="M141.236 18.2131V28.7148C141.236 30.4397 142.012 31.4543 143.513 31.8602C142.53 33.3315 141.132 34.0924 139.373 34.0924C137.613 34.0924 136.06 33.0778 135.646 30.9977C133.887 33.0778 131.61 34.0924 128.763 34.0924C125.917 34.0924 125.244 33.5851 124.002 32.6212C122.811 31.6573 122.19 30.2875 122.19 28.5118C122.19 26.7362 123.329 24.6054 125.658 23.2356C127.935 21.9166 131.247 21.2063 135.491 21.1556V17.6043C135.491 15.0676 134.456 13.8501 132.438 13.8501C130.419 13.8501 130.782 14.1037 130.264 14.5603C129.746 15.0169 129.488 15.575 129.488 16.2852C129.488 16.9955 129.695 17.5536 130.161 18.0102C129.229 18.8726 128.194 19.2785 126.952 19.2785C125.71 19.2785 124.83 18.9741 124.209 18.416C123.588 17.858 123.277 17.097 123.277 16.133C123.277 14.6111 124.209 13.3935 126.072 12.3788C127.935 11.3642 130.161 10.8568 132.696 10.8568C135.232 10.8568 137.303 11.4656 138.855 12.6832C140.408 13.9008 141.184 15.7779 141.184 18.3145L141.236 18.2131ZM128.453 27.8523C128.453 29.5265 129.436 30.3382 131.351 30.3382C133.266 30.3382 134.353 29.628 135.543 28.1567V23.54C133.059 23.6922 131.247 24.1488 130.161 24.9098C129.022 25.6708 128.453 26.6855 128.453 27.8016V27.8523Z" fill="#0C2447"/>
<path d="M170.84 6.13867H157.176C155.147 6.13867 153.502 7.75136 153.502 9.7407V23.1342C153.502 25.1235 155.147 26.7362 157.176 26.7362H170.84C172.869 26.7362 174.514 25.1235 174.514 23.1342V9.7407C174.514 7.75136 172.869 6.13867 170.84 6.13867Z" fill="#405EFE"/>
<path d="M163.542 14.2052H156.245C154.215 14.2052 152.57 15.8179 152.57 17.8072V28.5119C152.57 30.5012 154.215 32.1139 156.245 32.1139H163.542C165.572 32.1139 167.217 30.5012 167.217 28.5119V17.8072C167.217 15.8179 165.572 14.2052 163.542 14.2052Z" fill="#F2CC0F"/>
<path d="M173.583 21.3585H162.663C160.633 21.3585 158.988 22.9712 158.988 24.9606V30.4397C158.988 32.429 160.633 34.0417 162.663 34.0417H173.583C175.612 34.0417 177.257 32.429 177.257 30.4397V24.9606C177.257 22.9712 175.612 21.3585 173.583 21.3585Z" fill="#F00444"/>
<path d="M176.376 6.13867H169.079C167.049 6.13867 165.404 7.75136 165.404 9.7407V26.7362C165.404 28.7255 167.049 30.3382 169.079 30.3382H176.376C178.405 30.3382 180.051 28.7255 180.051 26.7362V9.7407C180.051 7.75136 178.405 6.13867 176.376 6.13867Z" fill="#D96704"/>
</g>
<defs>
<clipPath id="clip0_453_22392">
<rect width="180" height="45" fill="white"/>
</clipPath>
</defs>
</svg>
