<svg width="39" height="40" viewBox="0 0 39 40" fill="none" xmlns="http://www.w3.org/2000/svg">
<path d="M25.5822 0H6.45008C3.60836 0 1.30469 2.25822 1.30469 5.04387V23.7986C1.30469 26.5842 3.60836 28.8424 6.45008 28.8424H25.5822C28.4239 28.8424 30.7276 26.5842 30.7276 23.7986V5.04387C30.7276 2.25822 28.4239 0 25.5822 0Z" fill="#405EFE"/>
<path d="M15.3637 11.2955H5.14539C2.30367 11.2955 0 13.5537 0 16.3393V31.3289C0 34.1145 2.30367 36.3727 5.14539 36.3727H15.3637C18.2054 36.3727 20.5091 34.1145 20.5091 31.3289V16.3393C20.5091 13.5537 18.2054 11.2955 15.3637 11.2955Z" fill="#F2CC0F"/>
<path d="M29.4239 21.3121H14.1327C11.291 21.3121 8.9873 23.5704 8.9873 26.356V34.0284C8.9873 36.814 11.291 39.0723 14.1327 39.0723H29.4239C32.2656 39.0723 34.5693 36.814 34.5693 34.0284V26.356C34.5693 23.5704 32.2656 21.3121 29.4239 21.3121Z" fill="#F00444"/>
<path d="M33.3354 0H23.1171C20.2754 0 17.9717 2.25822 17.9717 5.04387V28.8424C17.9717 31.6281 20.2754 33.8863 23.1171 33.8863H33.3354C36.1771 33.8863 38.4808 31.6281 38.4808 28.8424V5.04387C38.4808 2.25822 36.1771 0 33.3354 0Z" fill="#D96704"/>
</svg>
